<?xml version="1.0" encoding="UTF-8"?><svg id="Layer_1" xmlns="http://www.w3.org/2000/svg" viewBox="0 0 397 74"><defs><style>.cls-1{fill:#fff;}</style></defs><path class="cls-1" d="m37.01,4.03l21.31,53.36h-14.11l-3.17-8.5h-23.47l-3.1,8.5H.5L21.67,4.03h15.34Zm-15.99,34.71h16.63l-8.28-22.39-8.35,22.39Z"/><path class="cls-1" d="m63.28,0h13.03v57.39h-13.03V0Z"/><path class="cls-1" d="m84.81,7.56c0-4.39,3.24-6.98,7.7-6.98s7.7,2.59,7.7,6.98-3.24,6.84-7.7,6.84-7.7-2.59-7.7-6.84Zm14.11,11.74v38.09h-13.03V19.3h13.03Z"/><path class="cls-1" d="m148.25,19.3v33.55c0,12.17-7.7,19.08-21.46,19.08-7.34,0-14.4-2.23-17.93-4.46l2.88-9.65c3.1,2.3,8.86,4.25,14.4,4.25s10.01-2.52,10.01-8.06v-2.88c-1.94,2.88-6.05,5.11-11.23,5.11-10.94,0-18.58-7.2-18.58-18.51s7.42-19.51,19.37-19.51c4.68,0,8.71,1.73,11.02,3.96v-2.88h11.52Zm-19.95,27.58c2.59,0,4.97-.79,6.7-2.16v-14.4c-1.58-1.15-3.67-2.09-6.7-2.09-5.76,0-9.14,3.53-9.14,9.36s3.46,9.29,9.14,9.29Z"/><path class="cls-1" d="m196.7,34.78v22.61h-12.96v-21.6c0-4.75-2.38-6.7-6.77-6.7-2.59,0-4.97.72-6.55,1.87v26.43h-12.96V19.3h11.59v4.54c2.88-3.46,7.13-5.62,12.46-5.62,9.5,0,15.19,6.05,15.19,16.56Z"/><path class="cls-1" d="m268.85,34.13v23.26h-13.03v-22.11c0-3.89-2.3-6.12-6.41-6.12-2.16,0-4.18.58-5.9,1.51.14,1.08.22,2.23.22,3.46v23.26h-13.03v-22.11c0-3.89-2.02-6.12-6.19-6.12-1.87,0-4.32.58-6.12,1.8v26.43h-12.96V19.3h11.59v4.54c4.03-4.39,7.92-5.62,12.82-5.62s8.71,2.02,11.02,5.26c3.17-3.46,7.7-5.26,12.75-5.26,9.58,0,15.27,5.83,15.27,15.91Z"/><path class="cls-1" d="m315.14,41.04h-26.21c1.08,5.33,4.46,7.7,11.09,7.7,4.18,0,8.78-1.08,11.88-2.52l1.51,9.22c-2.95,1.58-8.71,3.02-14.83,3.02-13.97,0-22.9-7.56-22.9-20.16s8.06-20.09,20.52-20.09c11.67,0,19.23,7.13,19.23,18.51,0,1.44-.14,3.24-.29,4.32Zm-11.88-6.98c0-4.18-2.59-6.84-7.2-6.84-3.89,0-6.62,2.02-7.34,6.84h14.55Z"/><path class="cls-1" d="m361.51,34.78v22.61h-12.96v-21.6c0-4.75-2.38-6.7-6.77-6.7-2.59,0-4.97.72-6.55,1.87v26.43h-12.96V19.3h11.59v4.54c2.88-3.46,7.13-5.62,12.46-5.62,9.5,0,15.19,6.05,15.19,16.56Z"/><path class="cls-1" d="m397.07,56.96c-2.45,1.01-5.4,1.51-8.28,1.51-9.72,0-15.55-5.33-15.55-14.26v-14.69h-6.84v-10.23h6.84v-10.15h12.96v10.15h10.95v10.23h-10.95v12.89c0,3.89,1.58,5.69,5.47,5.69,1.66,0,3.38-.36,5.4-.94v9.79Z"/></svg>