<?xml version="1.0" encoding="utf-8"?>
<!-- Generator: Adobe Illustrator 27.7.0, SVG Export Plug-In . SVG Version: 6.00 Build 0)  -->
<svg version="1.1"
	 id="Layer_1" xmlns:dc="http://purl.org/dc/elements/1.1/" xmlns:cc="http://creativecommons.org/ns#" xmlns:inkscape="http://www.inkscape.org/namespaces/inkscape" xmlns:sodipodi="http://sodipodi.sourceforge.net/DTD/sodipodi-0.dtd" xmlns:rdf="http://www.w3.org/1999/02/22-rdf-syntax-ns#" xmlns:svg="http://www.w3.org/2000/svg"
	 xmlns="http://www.w3.org/2000/svg" xmlns:xlink="http://www.w3.org/1999/xlink" x="0px" y="0px" viewBox="0 0 103.8 105.2"
	 style="enable-background:new 0 0 103.8 105.2;" xml:space="preserve">
<sodipodi:namedview  bordercolor="#666666" borderopacity="1" fit-margin-bottom="0" fit-margin-left="0" fit-margin-right="0" fit-margin-top="0" gridtolerance="10" guidetolerance="10" id="namedview9" inkscape:current-layer="Layer_1" inkscape:cx="51.9" inkscape:cy="22.5" inkscape:pageopacity="0" inkscape:pageshadow="2" inkscape:window-height="1752" inkscape:window-maximized="1" inkscape:window-width="3070" inkscape:window-x="130" inkscape:window-y="48" inkscape:zoom="1.18" objecttolerance="10" pagecolor="#ffffff" showgrid="false">
	</sodipodi:namedview>
<path id="path7" inkscape:connector-curvature="0" d="M38.6,52.6c0-6.9,5.6-12.5,12.5-12.5s12.5,5.6,12.5,12.5S58,65.1,51.1,65.1
	C44.2,65.2,38.6,59.5,38.6,52.6z M51.1,0C26.5,0,5.9,16.8,0.1,39.6c0,0.2-0.1,0.3-0.1,0.5c0,1.4,1.1,2.5,2.5,2.5h21.2
	c1,0,1.9-0.6,2.3-1.5l0,0C30.4,31.6,39.9,25,51.1,25c15.2,0,27.6,12.4,27.6,27.6S66.3,80.2,51.1,80.2C40,80.2,30.4,73.6,26,64.1l0,0
	c-0.4-0.9-1.3-1.5-2.3-1.5H2.5c-1.4,0-2.5,1.1-2.5,2.5c0,0.2,0,0.3,0.1,0.5c5.8,22.8,26.4,39.6,51,39.6c29.1,0,52.7-23.6,52.7-52.7
	C103.8,23.5,80.2,0,51.1,0z"/>
</svg>
