<?xml version="1.0" encoding="utf-8"?>
<!-- Generator: Adobe Illustrator 27.7.0, SVG Export Plug-In . SVG Version: 6.00 Build 0)  -->
<svg version="1.1" id="Layer_1" xmlns="http://www.w3.org/2000/svg" xmlns:xlink="http://www.w3.org/1999/xlink" x="0px" y="0px"
	 viewBox="0 0 757 332" style="enable-background:new 0 0 757 332;" xml:space="preserve">
<style type="text/css">
	.st0{fill:#FFFFFF;}
</style>
<g>
	<path class="st0" d="M197.1,16C185.5,5.6,168.1,0.4,145,0.4c-23.4,0-40.9,5.2-52.5,15.6S75.1,41.9,75.1,62.7V269
		c0,21.2,5.7,36.9,17,47.2c11.4,10.3,29,15.4,52.8,15.4c23.6,0,41.1-5.1,52.5-15.4c11.4-10.3,17-26,17-47.2v-36.4h-64.6V271
		c0,4.8-0.4,9-1.2,12.4s-2,5.1-3.8,5.1c-2.2,0-3.8-1.7-4.6-5.1c-0.9-3.4-1.3-7.6-1.3-12.4V61c0-11.5,2-17.2,6-17.2
		c1.8,0,3,1.7,3.8,5.1c0.8,3.4,1.2,7.4,1.2,12.1v37.4h64.6V62.6C214.5,41.9,208.7,26.4,197.1,16z"/>
	<rect y="5.1" class="st0" width="64.6" height="321.8"/>
	<polygon class="st0" points="224.8,5.1 224.8,5.1 224.8,50.1 224.8,50.1 224.8,146.4 224.8,146.4 224.8,190.8 224.8,190.8 
		224.8,283.5 224.8,283.5 224.8,326.9 224.8,326.9 224.8,326.9 289,326.9 289,326.9 327.7,326.9 327.7,283.5 289,283.5 289,190.8 
		324.4,190.8 324.4,146.4 289,146.4 289,50.1 327.7,50.1 327.7,5.1 289,5.1 	"/>
	<polygon class="st0" points="752.8,326.9 716.4,161.7 751.2,5.1 686.6,5.1 661.4,139.8 661.4,5.1 597.2,5.1 597.2,326.9 
		661.4,326.9 661.4,182.1 688.3,326.9 	"/>
	<polygon class="st0" points="483.7,5.1 483.7,50.1 483.7,146.4 483.7,190.8 483.7,283.5 483.7,326.9 483.7,326.9 547.9,326.9 
		547.9,326.9 587,326.9 587,283.5 547.9,283.5 547.9,190.8 583.3,190.8 583.3,146.4 547.9,146.4 547.9,50.1 587,50.1 587,5.1 
		547.9,5.1 	"/>
	<polygon class="st0" points="371.8,5.1 335.3,5.1 335.3,58.7 371.8,58.7 371.8,326.9 436.3,326.9 436.3,58.7 475.1,58.7 475.1,5.1 
		436.3,5.1 	"/>
</g>
</svg>
