<?xml version="1.0" encoding="utf-8"?>
<!-- Generator: Adobe Illustrator 27.7.0, SVG Export Plug-In . SVG Version: 6.00 Build 0)  -->
<svg version="1.1" id="Layer_1" xmlns="http://www.w3.org/2000/svg" xmlns:xlink="http://www.w3.org/1999/xlink" x="0px" y="0px"
	 viewBox="0 0 841.9 595.3" style="enable-background:new 0 0 841.9 595.3;" xml:space="preserve">
<style type="text/css">
	.st0{fill:#FFFFFF;}
</style>
<g>
	<path class="st0" d="M244.1,129.2c-11.6-10.4-29-15.6-52.1-15.6c-23.4,0-40.9,5.2-52.5,15.6s-17.4,25.9-17.4,46.7v206.3
		c0,21.2,5.7,36.9,17,47.2c11.4,10.3,29,15.4,52.8,15.4c23.6,0,41.1-5.1,52.5-15.4c11.4-10.3,17-26,17-47.2v-36.4h-64.6v38.4
		c0,4.8-0.4,9-1.2,12.4s-2,5.1-3.8,5.1c-2.2,0-3.8-1.7-4.6-5.1c-0.9-3.4-1.3-7.6-1.3-12.4v-210c0-11.5,2-17.2,6-17.2
		c1.8,0,3,1.7,3.8,5.1c0.8,3.4,1.2,7.4,1.2,12.1v37.4h64.6v-35.8C261.5,155.1,255.7,139.6,244.1,129.2z"/>
	<rect x="47" y="118.3" class="st0" width="64.6" height="321.8"/>
	<polygon class="st0" points="271.8,118.3 271.8,118.3 271.8,163.3 271.8,163.3 271.8,259.6 271.8,259.6 271.8,304 271.8,304 
		271.8,396.7 271.8,396.7 271.8,440.1 271.8,440.1 271.8,440.1 336,440.1 336,440.1 374.7,440.1 374.7,396.7 336,396.7 336,304 
		371.4,304 371.4,259.6 336,259.6 336,163.3 374.7,163.3 374.7,118.3 336,118.3 	"/>
	<polygon class="st0" points="799.8,440.1 763.4,274.9 798.2,118.3 733.6,118.3 708.4,253 708.4,118.3 644.2,118.3 644.2,440.1 
		708.4,440.1 708.4,295.3 735.3,440.1 	"/>
	<polygon class="st0" points="530.7,118.3 530.7,163.3 530.7,259.6 530.7,304 530.7,396.7 530.7,440.1 530.7,440.1 594.9,440.1 
		594.9,440.1 634,440.1 634,396.7 594.9,396.7 594.9,304 630.3,304 630.3,259.6 594.9,259.6 594.9,163.3 634,163.3 634,118.3 
		594.9,118.3 	"/>
	<polygon class="st0" points="418.8,118.3 382.3,118.3 382.3,171.9 418.8,171.9 418.8,440.1 483.3,440.1 483.3,171.9 522.1,171.9 
		522.1,118.3 483.3,118.3 	"/>
</g>
</svg>
