<?xml version="1.0" encoding="UTF-8"?><svg
  id="Layer_1"
  xmlns="http://www.w3.org/2000/svg"
  xmlns:xlink="http://www.w3.org/1999/xlink"
  viewBox="0 0 360 360"
>
  <defs>
    <style>
      .cls-1 {
        fill: none;
      }
      .cls-2 {
        clip-path: url(#clippath);
      }
      .cls-3 {
        fill: #004dff;
      }
      .cls-4 {
        fill: #67cfee;
      }
      .cls-5 {
        fill: #008026;
      }
      .cls-6 {
        fill: #ffed00;
      }
      .cls-7 {
        fill: #ff8c00;
      }
      .cls-8 {
        fill: #750687;
      }
      .cls-9 {
        fill: #e40303;
      }
      .cls-10 {
        clip-path: url(#clippath-1);
      }
    </style>
    <clipPath id="clippath">
      <rect class="cls-1" x="45" y="101" width="58" height="156" />
    </clipPath>
    <clipPath id="clippath-1">
      <path
        class="cls-1"
        d="m112.2,143.5c0-30.4,19.1-44.7,60.7-44.7s60.4,14.3,60.4,44.7v21.5h-56.2v-23.8c0-5.6-1.1-8.5-4.3-8.5-2.9,0-4.2,2.9-4.2,8.5v75.7c0,5.1,1.3,8.7,4.3,8.7,2.7,0,4.2-3.5,4.2-8.7v-25.1h56.2v22.3c0,31.5-18.5,45.2-60.4,45.2s-60.7-13.7-60.7-45.2v-70.6Z"
      />
    </clipPath>
  </defs>
  <rect class="cls-4" x="240.4" y="224" width="79.5" height="33.1" />
  <g class="cls-2">
    <g>
      <rect class="cls-9" x="3" y="87.88" width="286.49" height="29.48" />
      <rect class="cls-7" x="3" y="117.34" width="286.49" height="29.48" />
      <rect class="cls-6" x="3" y="146.82" width="286.49" height="29.48" />
      <rect class="cls-5" x="3" y="176.31" width="286.49" height="29.48" />
      <rect class="cls-3" x="3" y="205.77" width="286.49" height="29.48" />
      <rect class="cls-8" x="3" y="235.27" width="286.49" height="29.48" />
    </g>
  </g>
  <g class="cls-10">
    <g>
      <rect class="cls-9" x="3" y="87.88" width="286.49" height="29.48" />
      <rect class="cls-7" x="3" y="117.34" width="286.49" height="29.48" />
      <rect class="cls-6" x="3" y="146.82" width="286.49" height="29.48" />
      <rect class="cls-5" x="3" y="176.31" width="286.49" height="29.48" />
      <rect class="cls-3" x="3" y="205.77" width="286.49" height="29.48" />
      <rect class="cls-8" x="3" y="235.27" width="286.49" height="29.48" />
    </g>
  </g>
</svg>
