<?xml version="1.0" encoding="UTF-8"?><svg id="Layer_1" xmlns="http://www.w3.org/2000/svg" viewBox="0 0 300 300"><defs><style>.cls-1{fill:#fff;}</style></defs><path class="cls-1" d="m150,41.46c28.99,0,56.25,11.29,76.75,31.79,20.5,20.5,31.79,47.76,31.79,76.75s-11.29,56.25-31.79,76.75c-20.5,20.5-47.76,31.79-76.75,31.79s-56.25-11.29-76.75-31.79c-20.5-20.5-31.79-47.76-31.79-76.75s11.29-56.25,31.79-76.75c20.5-20.5,47.76-31.79,76.75-31.79m0-12c-66.57,0-120.54,53.97-120.54,120.54s53.97,120.54,120.54,120.54,120.54-53.97,120.54-120.54S216.57,29.46,150,29.46h0Z"/><polygon class="cls-1" points="150 211.07 150 211.07 88.68 112.06 211.32 112.06 150 211.07"/></svg>